<svg width="1208" height="808" viewBox="0 0 1208 808" fill="none" xmlns="http://www.w3.org/2000/svg">
<g filter="url(#filter0_d_169_149)">
<rect x="4" width="1200" height="800" fill="#5C5C5C"/>
</g>
<g filter="url(#filter1_d_169_149)">
<path d="M488.5 160H706.5V335H488.5V160Z" fill="#444444"/>
</g>
<g filter="url(#filter2_d_169_149)">
<rect x="856" y="244" width="248" height="455" fill="#444444"/>
</g>
<g filter="url(#filter3_d_169_149)">
<path d="M140 363H414V709H140V363Z" fill="#444444"/>
</g>
<g filter="url(#filter4_d_169_149)">
<path d="M174.523 504.909H178.727L188.614 529.057H188.955L198.841 504.909H203.045V534H199.75V511.898H199.466L190.375 534H187.193L178.102 511.898H177.818V534H174.523V504.909ZM211.302 534H207.609L218.29 504.909H221.927L232.609 534H228.915L220.222 509.511H219.995L211.302 534ZM212.665 522.636H227.552V525.761H212.665V522.636ZM255.659 514C255.347 513.044 254.935 512.187 254.423 511.429C253.921 510.662 253.32 510.009 252.619 509.469C251.928 508.929 251.142 508.517 250.261 508.233C249.381 507.949 248.415 507.807 247.364 507.807C245.64 507.807 244.073 508.252 242.662 509.142C241.251 510.032 240.129 511.344 239.295 513.077C238.462 514.81 238.045 516.936 238.045 519.455C238.045 521.973 238.467 524.099 239.31 525.832C240.152 527.565 241.294 528.877 242.733 529.767C244.172 530.657 245.792 531.102 247.591 531.102C249.258 531.102 250.725 530.747 251.994 530.037C253.273 529.317 254.267 528.304 254.977 526.997C255.697 525.681 256.057 524.133 256.057 522.352L257.136 522.58H248.386V519.455H259.466V522.58C259.466 524.975 258.955 527.059 257.932 528.83C256.919 530.6 255.517 531.973 253.727 532.949C251.947 533.915 249.902 534.398 247.591 534.398C245.015 534.398 242.752 533.792 240.801 532.58C238.86 531.367 237.345 529.644 236.256 527.409C235.176 525.174 234.636 522.523 234.636 519.455C234.636 517.153 234.944 515.084 235.56 513.247C236.185 511.401 237.065 509.829 238.202 508.531C239.338 507.234 240.683 506.24 242.236 505.548C243.789 504.857 245.498 504.511 247.364 504.511C248.898 504.511 250.328 504.743 251.653 505.207C252.989 505.662 254.177 506.311 255.219 507.153C256.27 507.987 257.146 508.986 257.847 510.151C258.547 511.306 259.03 512.589 259.295 514H255.659ZM265.794 534H262.101L272.783 504.909H276.419L287.101 534H283.408L274.714 509.511H274.487L265.794 534ZM267.158 522.636H282.044V525.761H267.158V522.636ZM290.666 534V531.443L306.348 508.034H290.496V504.909H310.553V507.466L294.871 530.875H310.723V534H290.666ZM320.155 504.909V534H316.632V504.909H320.155ZM338.354 504.909H341.877V525.705C341.877 527.561 341.536 529.137 340.854 530.435C340.173 531.732 339.211 532.717 337.971 533.389C336.73 534.062 335.267 534.398 333.582 534.398C331.991 534.398 330.575 534.109 329.335 533.531C328.094 532.944 327.119 532.111 326.408 531.031C325.698 529.952 325.343 528.669 325.343 527.182H328.809C328.809 528.006 329.013 528.725 329.42 529.341C329.836 529.947 330.405 530.42 331.124 530.761C331.844 531.102 332.663 531.273 333.582 531.273C334.595 531.273 335.457 531.06 336.167 530.634C336.877 530.207 337.417 529.582 337.786 528.759C338.165 527.925 338.354 526.907 338.354 525.705V504.909ZM372.005 504.909V534H368.596L352.744 511.159H352.46V534H348.937V504.909H352.346L368.255 527.807H368.539V504.909H372.005Z" fill="white"/>
</g>
<g filter="url(#filter5_d_169_149)">
<rect x="507" y="512" width="181" height="149" fill="#444444"/>
</g>
<g filter="url(#filter6_d_169_149)">
<path d="M541.523 593V563.909H545.045V578.341H545.386L558.455 563.909H563.057L550.841 577.034L563.057 593H558.795L548.682 579.477L545.045 583.568V593H541.523ZM567.616 593V563.909H577.446C579.719 563.909 581.584 564.297 583.043 565.074C584.501 565.841 585.58 566.897 586.281 568.241C586.982 569.586 587.332 571.116 587.332 572.83C587.332 574.544 586.982 576.063 586.281 577.389C585.58 578.715 584.506 579.757 583.057 580.514C581.608 581.262 579.757 581.636 577.503 581.636H569.548V578.455H577.389C578.942 578.455 580.192 578.227 581.139 577.773C582.096 577.318 582.787 576.674 583.213 575.841C583.649 574.998 583.866 573.994 583.866 572.83C583.866 571.665 583.649 570.647 583.213 569.776C582.777 568.904 582.081 568.232 581.125 567.759C580.169 567.276 578.904 567.034 577.332 567.034H571.139V593H567.616ZM581.31 579.932L588.469 593H584.378L577.332 579.932H581.31ZM594.396 593H590.702L601.384 563.909H605.021L615.702 593H612.009L603.316 568.511H603.089L594.396 593ZM595.759 581.636H610.646V584.761H595.759V581.636ZM621.427 593H617.734L628.415 563.909H632.052L642.734 593H639.04L630.347 568.511H630.12L621.427 593ZM622.79 581.636H637.677V584.761H622.79V581.636ZM670.333 563.909V593H666.924L651.072 570.159H650.788V593H647.265V563.909H650.674L666.583 586.807H666.867V563.909H670.333Z" fill="white"/>
</g>
<g filter="url(#filter7_d_169_149)">
<path d="M547.068 246.455C547.068 249.523 546.514 252.174 545.406 254.409C544.298 256.644 542.778 258.367 540.847 259.58C538.915 260.792 536.708 261.398 534.227 261.398C531.746 261.398 529.54 260.792 527.608 259.58C525.676 258.367 524.156 256.644 523.048 254.409C521.94 252.174 521.386 249.523 521.386 246.455C521.386 243.386 521.94 240.735 523.048 238.5C524.156 236.265 525.676 234.542 527.608 233.33C529.54 232.117 531.746 231.511 534.227 231.511C536.708 231.511 538.915 232.117 540.847 233.33C542.778 234.542 544.298 236.265 545.406 238.5C546.514 240.735 547.068 243.386 547.068 246.455ZM543.659 246.455C543.659 243.936 543.238 241.81 542.395 240.077C541.562 238.344 540.43 237.032 539 236.142C537.58 235.252 535.989 234.807 534.227 234.807C532.466 234.807 530.87 235.252 529.44 236.142C528.02 237.032 526.888 238.344 526.045 240.077C525.212 241.81 524.795 243.936 524.795 246.455C524.795 248.973 525.212 251.099 526.045 252.832C526.888 254.565 528.02 255.877 529.44 256.767C530.87 257.657 532.466 258.102 534.227 258.102C535.989 258.102 537.58 257.657 539 256.767C540.43 255.877 541.562 254.565 542.395 252.832C543.238 251.099 543.659 248.973 543.659 246.455ZM552.817 231.909L561.454 256.398H561.795L570.431 231.909H574.124L563.442 261H559.806L549.124 231.909H552.817ZM578.656 261V231.909H596.212V235.034H582.178V244.864H595.303V247.989H582.178V257.875H596.44V261H578.656ZM625.63 231.909V261H622.221L606.369 238.159H606.085V261H602.562V231.909H605.971L621.88 254.807H622.164V231.909H625.63Z" fill="white"/>
</g>
<g filter="url(#filter8_d_169_149)">
<path d="M872.523 462V432.909H876.045V458.875H889.568V462H872.523ZM918.435 447.455C918.435 450.523 917.881 453.174 916.773 455.409C915.665 457.644 914.146 459.367 912.214 460.58C910.282 461.792 908.076 462.398 905.594 462.398C903.113 462.398 900.907 461.792 898.975 460.58C897.043 459.367 895.523 457.644 894.415 455.409C893.308 453.174 892.754 450.523 892.754 447.455C892.754 444.386 893.308 441.735 894.415 439.5C895.523 437.265 897.043 435.542 898.975 434.33C900.907 433.117 903.113 432.511 905.594 432.511C908.076 432.511 910.282 433.117 912.214 434.33C914.146 435.542 915.665 437.265 916.773 439.5C917.881 441.735 918.435 444.386 918.435 447.455ZM915.026 447.455C915.026 444.936 914.605 442.81 913.762 441.077C912.929 439.344 911.797 438.032 910.367 437.142C908.947 436.252 907.356 435.807 905.594 435.807C903.833 435.807 902.237 436.252 900.808 437.142C899.387 438.032 898.255 439.344 897.413 441.077C896.579 442.81 896.163 444.936 896.163 447.455C896.163 449.973 896.579 452.099 897.413 453.832C898.255 455.565 899.387 456.877 900.808 457.767C902.237 458.657 903.833 459.102 905.594 459.102C907.356 459.102 908.947 458.657 910.367 457.767C911.797 456.877 912.929 455.565 913.762 453.832C914.605 452.099 915.026 449.973 915.026 447.455ZM948.904 447.455C948.904 450.523 948.35 453.174 947.242 455.409C946.134 457.644 944.614 459.367 942.683 460.58C940.751 461.792 938.544 462.398 936.063 462.398C933.582 462.398 931.376 461.792 929.444 460.58C927.512 459.367 925.992 457.644 924.884 455.409C923.776 453.174 923.222 450.523 923.222 447.455C923.222 444.386 923.776 441.735 924.884 439.5C925.992 437.265 927.512 435.542 929.444 434.33C931.376 433.117 933.582 432.511 936.063 432.511C938.544 432.511 940.751 433.117 942.683 434.33C944.614 435.542 946.134 437.265 947.242 439.5C948.35 441.735 948.904 444.386 948.904 447.455ZM945.495 447.455C945.495 444.936 945.074 442.81 944.231 441.077C943.397 439.344 942.266 438.032 940.836 437.142C939.415 436.252 937.825 435.807 936.063 435.807C934.302 435.807 932.706 436.252 931.276 437.142C929.856 438.032 928.724 439.344 927.881 441.077C927.048 442.81 926.631 444.936 926.631 447.455C926.631 449.973 927.048 452.099 927.881 453.832C928.724 455.565 929.856 456.877 931.276 457.767C932.706 458.657 934.302 459.102 936.063 459.102C937.825 459.102 939.415 458.657 940.836 457.767C942.266 456.877 943.397 455.565 944.231 453.832C945.074 452.099 945.495 449.973 945.495 447.455ZM954.827 462V432.909H964.657C966.939 432.909 968.805 433.321 970.254 434.145C971.712 434.959 972.791 436.062 973.492 437.455C974.193 438.847 974.543 440.4 974.543 442.114C974.543 443.828 974.193 445.385 973.492 446.787C972.801 448.188 971.731 449.306 970.282 450.139C968.833 450.963 966.977 451.375 964.714 451.375H957.668V448.25H964.6C966.163 448.25 967.417 447.98 968.364 447.44C969.311 446.901 969.998 446.171 970.424 445.253C970.86 444.325 971.077 443.278 971.077 442.114C971.077 440.949 970.86 439.907 970.424 438.989C969.998 438.07 969.307 437.35 968.35 436.83C967.394 436.299 966.125 436.034 964.543 436.034H958.35V462H954.827ZM980.218 462V432.909H990.388C992.415 432.909 994.086 433.259 995.403 433.96C996.719 434.652 997.699 435.584 998.343 436.759C998.987 437.923 999.309 439.216 999.309 440.636C999.309 441.886 999.086 442.919 998.641 443.733C998.206 444.547 997.628 445.191 996.908 445.665C996.198 446.138 995.426 446.489 994.593 446.716V447C995.483 447.057 996.378 447.369 997.278 447.938C998.177 448.506 998.93 449.32 999.536 450.381C1000.14 451.441 1000.45 452.739 1000.45 454.273C1000.45 455.731 1000.11 457.043 999.451 458.207C998.788 459.372 997.742 460.295 996.312 460.977C994.882 461.659 993.021 462 990.729 462H980.218ZM983.741 458.875H990.729C993.031 458.875 994.664 458.43 995.63 457.54C996.605 456.64 997.093 455.551 997.093 454.273C997.093 453.288 996.842 452.379 996.34 451.545C995.838 450.703 995.123 450.03 994.195 449.528C993.267 449.017 992.169 448.761 990.9 448.761H983.741V458.875ZM983.741 445.693H990.275C991.335 445.693 992.292 445.485 993.144 445.068C994.006 444.652 994.688 444.064 995.19 443.307C995.701 442.549 995.957 441.659 995.957 440.636C995.957 439.358 995.512 438.274 994.621 437.384C993.731 436.484 992.32 436.034 990.388 436.034H983.741V445.693ZM1007.43 462H1003.73L1014.42 432.909H1018.05L1028.73 462H1025.04L1016.35 437.511H1016.12L1007.43 462ZM1008.79 450.636H1023.68V453.761H1008.79V450.636ZM1056.33 432.909V462H1052.92L1037.07 439.159H1036.79V462H1033.26V432.909H1036.67L1052.58 455.807H1052.87V432.909H1056.33ZM1072.36 462H1063.38V432.909H1072.76C1075.58 432.909 1077.99 433.491 1080 434.656C1082.01 435.812 1083.55 437.473 1084.62 439.642C1085.69 441.801 1086.22 444.386 1086.22 447.398C1086.22 450.428 1085.68 453.037 1084.6 455.224C1083.52 457.402 1081.95 459.079 1079.89 460.253C1077.82 461.418 1075.31 462 1072.36 462ZM1066.9 458.875H1072.13C1074.54 458.875 1076.53 458.411 1078.11 457.483C1079.69 456.555 1080.87 455.234 1081.65 453.52C1082.43 451.806 1082.81 449.765 1082.81 447.398C1082.81 445.049 1082.43 443.027 1081.66 441.332C1080.9 439.628 1079.75 438.321 1078.23 437.412C1076.7 436.493 1074.8 436.034 1072.53 436.034H1066.9V458.875Z" fill="white"/>
</g>
<g filter="url(#filter9_d_169_149)">
<path d="M507.707 630.707C508.098 630.317 508.098 629.683 507.707 629.293L501.343 622.929C500.953 622.538 500.319 622.538 499.929 622.929C499.538 623.319 499.538 623.953 499.929 624.343L505.586 630L499.929 635.657C499.538 636.047 499.538 636.681 499.929 637.071C500.319 637.462 500.953 637.462 501.343 637.071L507.707 630.707ZM414 630V631H507V630V629H414V630Z" fill="white"/>
</g>
<g filter="url(#filter10_d_169_149)">
<path d="M413.293 586.293C412.902 586.683 412.902 587.317 413.293 587.707L419.657 594.071C420.047 594.462 420.681 594.462 421.071 594.071C421.462 593.681 421.462 593.047 421.071 592.657L415.414 587L421.071 581.343C421.462 580.953 421.462 580.319 421.071 579.929C420.681 579.538 420.047 579.538 419.657 579.929L413.293 586.293ZM507 587V586H414V587V588H507V587Z" fill="white"/>
</g>
<g filter="url(#filter11_d_169_149)">
<path d="M598.707 334.293C598.317 333.902 597.683 333.902 597.293 334.293L590.929 340.657C590.538 341.047 590.538 341.681 590.929 342.071C591.319 342.462 591.953 342.462 592.343 342.071L598 336.414L603.657 342.071C604.047 342.462 604.681 342.462 605.071 342.071C605.462 341.681 605.462 341.047 605.071 340.657L598.707 334.293ZM598 512H599V335H598H597V512H598Z" fill="white"/>
</g>
<g filter="url(#filter12_d_169_149)">
<path d="M869.707 267.707C870.098 267.317 870.098 266.683 869.707 266.293L863.343 259.929C862.953 259.538 862.319 259.538 861.929 259.929C861.538 260.319 861.538 260.953 861.929 261.343L867.586 267L861.929 272.657C861.538 273.047 861.538 273.681 861.929 274.071C862.319 274.462 862.953 274.462 863.343 274.071L869.707 267.707ZM707 267V268H869V267V266H707V267Z" fill="white"/>
</g>
<g filter="url(#filter13_d_169_149)">
<path d="M687.297 591.289C686.904 591.677 686.901 592.31 687.289 592.703L693.615 599.105C694.003 599.497 694.636 599.501 695.029 599.113C695.422 598.725 695.425 598.092 695.037 597.699L689.414 592.008L695.105 586.385C695.497 585.997 695.501 585.364 695.113 584.971C694.725 584.578 694.092 584.575 693.699 584.963L687.297 591.289ZM856 593L856.006 592L688.006 591L688 592L687.994 593L855.994 594L856 593Z" fill="white"/>
</g>
<defs>
<filter id="filter0_d_169_149" x="0" y="0" width="1208" height="808" filterUnits="userSpaceOnUse" color-interpolation-filters="sRGB">
<feFlood flood-opacity="0" result="BackgroundImageFix"/>
<feColorMatrix in="SourceAlpha" type="matrix" values="0 0 0 0 0 0 0 0 0 0 0 0 0 0 0 0 0 0 127 0" result="hardAlpha"/>
<feOffset dy="4"/>
<feGaussianBlur stdDeviation="2"/>
<feComposite in2="hardAlpha" operator="out"/>
<feColorMatrix type="matrix" values="0 0 0 0 0 0 0 0 0 0 0 0 0 0 0 0 0 0 0.25 0"/>
<feBlend mode="normal" in2="BackgroundImageFix" result="effect1_dropShadow_169_149"/>
<feBlend mode="normal" in="SourceGraphic" in2="effect1_dropShadow_169_149" result="shape"/>
</filter>
<filter id="filter1_d_169_149" x="484.5" y="160" width="226" height="183" filterUnits="userSpaceOnUse" color-interpolation-filters="sRGB">
<feFlood flood-opacity="0" result="BackgroundImageFix"/>
<feColorMatrix in="SourceAlpha" type="matrix" values="0 0 0 0 0 0 0 0 0 0 0 0 0 0 0 0 0 0 127 0" result="hardAlpha"/>
<feOffset dy="4"/>
<feGaussianBlur stdDeviation="2"/>
<feComposite in2="hardAlpha" operator="out"/>
<feColorMatrix type="matrix" values="0 0 0 0 0 0 0 0 0 0 0 0 0 0 0 0 0 0 0.25 0"/>
<feBlend mode="normal" in2="BackgroundImageFix" result="effect1_dropShadow_169_149"/>
<feBlend mode="normal" in="SourceGraphic" in2="effect1_dropShadow_169_149" result="shape"/>
</filter>
<filter id="filter2_d_169_149" x="852" y="244" width="256" height="463" filterUnits="userSpaceOnUse" color-interpolation-filters="sRGB">
<feFlood flood-opacity="0" result="BackgroundImageFix"/>
<feColorMatrix in="SourceAlpha" type="matrix" values="0 0 0 0 0 0 0 0 0 0 0 0 0 0 0 0 0 0 127 0" result="hardAlpha"/>
<feOffset dy="4"/>
<feGaussianBlur stdDeviation="2"/>
<feComposite in2="hardAlpha" operator="out"/>
<feColorMatrix type="matrix" values="0 0 0 0 0 0 0 0 0 0 0 0 0 0 0 0 0 0 0.25 0"/>
<feBlend mode="normal" in2="BackgroundImageFix" result="effect1_dropShadow_169_149"/>
<feBlend mode="normal" in="SourceGraphic" in2="effect1_dropShadow_169_149" result="shape"/>
</filter>
<filter id="filter3_d_169_149" x="136" y="363" width="282" height="354" filterUnits="userSpaceOnUse" color-interpolation-filters="sRGB">
<feFlood flood-opacity="0" result="BackgroundImageFix"/>
<feColorMatrix in="SourceAlpha" type="matrix" values="0 0 0 0 0 0 0 0 0 0 0 0 0 0 0 0 0 0 127 0" result="hardAlpha"/>
<feOffset dy="4"/>
<feGaussianBlur stdDeviation="2"/>
<feComposite in2="hardAlpha" operator="out"/>
<feColorMatrix type="matrix" values="0 0 0 0 0 0 0 0 0 0 0 0 0 0 0 0 0 0 0.25 0"/>
<feBlend mode="normal" in2="BackgroundImageFix" result="effect1_dropShadow_169_149"/>
<feBlend mode="normal" in="SourceGraphic" in2="effect1_dropShadow_169_149" result="shape"/>
</filter>
<filter id="filter4_d_169_149" x="170.523" y="504.511" width="205.482" height="37.8862" filterUnits="userSpaceOnUse" color-interpolation-filters="sRGB">
<feFlood flood-opacity="0" result="BackgroundImageFix"/>
<feColorMatrix in="SourceAlpha" type="matrix" values="0 0 0 0 0 0 0 0 0 0 0 0 0 0 0 0 0 0 127 0" result="hardAlpha"/>
<feOffset dy="4"/>
<feGaussianBlur stdDeviation="2"/>
<feComposite in2="hardAlpha" operator="out"/>
<feColorMatrix type="matrix" values="0 0 0 0 0 0 0 0 0 0 0 0 0 0 0 0 0 0 0.25 0"/>
<feBlend mode="normal" in2="BackgroundImageFix" result="effect1_dropShadow_169_149"/>
<feBlend mode="normal" in="SourceGraphic" in2="effect1_dropShadow_169_149" result="shape"/>
</filter>
<filter id="filter5_d_169_149" x="503" y="512" width="189" height="157" filterUnits="userSpaceOnUse" color-interpolation-filters="sRGB">
<feFlood flood-opacity="0" result="BackgroundImageFix"/>
<feColorMatrix in="SourceAlpha" type="matrix" values="0 0 0 0 0 0 0 0 0 0 0 0 0 0 0 0 0 0 127 0" result="hardAlpha"/>
<feOffset dy="4"/>
<feGaussianBlur stdDeviation="2"/>
<feComposite in2="hardAlpha" operator="out"/>
<feColorMatrix type="matrix" values="0 0 0 0 0 0 0 0 0 0 0 0 0 0 0 0 0 0 0.25 0"/>
<feBlend mode="normal" in2="BackgroundImageFix" result="effect1_dropShadow_169_149"/>
<feBlend mode="normal" in="SourceGraphic" in2="effect1_dropShadow_169_149" result="shape"/>
</filter>
<filter id="filter6_d_169_149" x="537.523" y="563.909" width="136.81" height="37.0908" filterUnits="userSpaceOnUse" color-interpolation-filters="sRGB">
<feFlood flood-opacity="0" result="BackgroundImageFix"/>
<feColorMatrix in="SourceAlpha" type="matrix" values="0 0 0 0 0 0 0 0 0 0 0 0 0 0 0 0 0 0 127 0" result="hardAlpha"/>
<feOffset dy="4"/>
<feGaussianBlur stdDeviation="2"/>
<feComposite in2="hardAlpha" operator="out"/>
<feColorMatrix type="matrix" values="0 0 0 0 0 0 0 0 0 0 0 0 0 0 0 0 0 0 0.25 0"/>
<feBlend mode="normal" in2="BackgroundImageFix" result="effect1_dropShadow_169_149"/>
<feBlend mode="normal" in="SourceGraphic" in2="effect1_dropShadow_169_149" result="shape"/>
</filter>
<filter id="filter7_d_169_149" x="517.386" y="231.511" width="112.244" height="37.8862" filterUnits="userSpaceOnUse" color-interpolation-filters="sRGB">
<feFlood flood-opacity="0" result="BackgroundImageFix"/>
<feColorMatrix in="SourceAlpha" type="matrix" values="0 0 0 0 0 0 0 0 0 0 0 0 0 0 0 0 0 0 127 0" result="hardAlpha"/>
<feOffset dy="4"/>
<feGaussianBlur stdDeviation="2"/>
<feComposite in2="hardAlpha" operator="out"/>
<feColorMatrix type="matrix" values="0 0 0 0 0 0 0 0 0 0 0 0 0 0 0 0 0 0 0.25 0"/>
<feBlend mode="normal" in2="BackgroundImageFix" result="effect1_dropShadow_169_149"/>
<feBlend mode="normal" in="SourceGraphic" in2="effect1_dropShadow_169_149" result="shape"/>
</filter>
<filter id="filter8_d_169_149" x="868.523" y="432.511" width="221.7" height="37.8862" filterUnits="userSpaceOnUse" color-interpolation-filters="sRGB">
<feFlood flood-opacity="0" result="BackgroundImageFix"/>
<feColorMatrix in="SourceAlpha" type="matrix" values="0 0 0 0 0 0 0 0 0 0 0 0 0 0 0 0 0 0 127 0" result="hardAlpha"/>
<feOffset dy="4"/>
<feGaussianBlur stdDeviation="2"/>
<feComposite in2="hardAlpha" operator="out"/>
<feColorMatrix type="matrix" values="0 0 0 0 0 0 0 0 0 0 0 0 0 0 0 0 0 0 0.25 0"/>
<feBlend mode="normal" in2="BackgroundImageFix" result="effect1_dropShadow_169_149"/>
<feBlend mode="normal" in="SourceGraphic" in2="effect1_dropShadow_169_149" result="shape"/>
</filter>
<filter id="filter9_d_169_149" x="410" y="622.636" width="102" height="22.728" filterUnits="userSpaceOnUse" color-interpolation-filters="sRGB">
<feFlood flood-opacity="0" result="BackgroundImageFix"/>
<feColorMatrix in="SourceAlpha" type="matrix" values="0 0 0 0 0 0 0 0 0 0 0 0 0 0 0 0 0 0 127 0" result="hardAlpha"/>
<feOffset dy="4"/>
<feGaussianBlur stdDeviation="2"/>
<feComposite in2="hardAlpha" operator="out"/>
<feColorMatrix type="matrix" values="0 0 0 0 0 0 0 0 0 0 0 0 0 0 0 0 0 0 0.25 0"/>
<feBlend mode="normal" in2="BackgroundImageFix" result="effect1_dropShadow_169_149"/>
<feBlend mode="normal" in="SourceGraphic" in2="effect1_dropShadow_169_149" result="shape"/>
</filter>
<filter id="filter10_d_169_149" x="409" y="579.636" width="102" height="22.728" filterUnits="userSpaceOnUse" color-interpolation-filters="sRGB">
<feFlood flood-opacity="0" result="BackgroundImageFix"/>
<feColorMatrix in="SourceAlpha" type="matrix" values="0 0 0 0 0 0 0 0 0 0 0 0 0 0 0 0 0 0 127 0" result="hardAlpha"/>
<feOffset dy="4"/>
<feGaussianBlur stdDeviation="2"/>
<feComposite in2="hardAlpha" operator="out"/>
<feColorMatrix type="matrix" values="0 0 0 0 0 0 0 0 0 0 0 0 0 0 0 0 0 0 0.25 0"/>
<feBlend mode="normal" in2="BackgroundImageFix" result="effect1_dropShadow_169_149"/>
<feBlend mode="normal" in="SourceGraphic" in2="effect1_dropShadow_169_149" result="shape"/>
</filter>
<filter id="filter11_d_169_149" x="586.636" y="334" width="22.7279" height="186" filterUnits="userSpaceOnUse" color-interpolation-filters="sRGB">
<feFlood flood-opacity="0" result="BackgroundImageFix"/>
<feColorMatrix in="SourceAlpha" type="matrix" values="0 0 0 0 0 0 0 0 0 0 0 0 0 0 0 0 0 0 127 0" result="hardAlpha"/>
<feOffset dy="4"/>
<feGaussianBlur stdDeviation="2"/>
<feComposite in2="hardAlpha" operator="out"/>
<feColorMatrix type="matrix" values="0 0 0 0 0 0 0 0 0 0 0 0 0 0 0 0 0 0 0.25 0"/>
<feBlend mode="normal" in2="BackgroundImageFix" result="effect1_dropShadow_169_149"/>
<feBlend mode="normal" in="SourceGraphic" in2="effect1_dropShadow_169_149" result="shape"/>
</filter>
<filter id="filter12_d_169_149" x="703" y="259.636" width="171" height="22.728" filterUnits="userSpaceOnUse" color-interpolation-filters="sRGB">
<feFlood flood-opacity="0" result="BackgroundImageFix"/>
<feColorMatrix in="SourceAlpha" type="matrix" values="0 0 0 0 0 0 0 0 0 0 0 0 0 0 0 0 0 0 127 0" result="hardAlpha"/>
<feOffset dy="4"/>
<feGaussianBlur stdDeviation="2"/>
<feComposite in2="hardAlpha" operator="out"/>
<feColorMatrix type="matrix" values="0 0 0 0 0 0 0 0 0 0 0 0 0 0 0 0 0 0 0.25 0"/>
<feBlend mode="normal" in2="BackgroundImageFix" result="effect1_dropShadow_169_149"/>
<feBlend mode="normal" in="SourceGraphic" in2="effect1_dropShadow_169_149" result="shape"/>
</filter>
<filter id="filter13_d_169_149" x="683" y="584.674" width="177.006" height="22.7275" filterUnits="userSpaceOnUse" color-interpolation-filters="sRGB">
<feFlood flood-opacity="0" result="BackgroundImageFix"/>
<feColorMatrix in="SourceAlpha" type="matrix" values="0 0 0 0 0 0 0 0 0 0 0 0 0 0 0 0 0 0 127 0" result="hardAlpha"/>
<feOffset dy="4"/>
<feGaussianBlur stdDeviation="2"/>
<feComposite in2="hardAlpha" operator="out"/>
<feColorMatrix type="matrix" values="0 0 0 0 0 0 0 0 0 0 0 0 0 0 0 0 0 0 0.25 0"/>
<feBlend mode="normal" in2="BackgroundImageFix" result="effect1_dropShadow_169_149"/>
<feBlend mode="normal" in="SourceGraphic" in2="effect1_dropShadow_169_149" result="shape"/>
</filter>
</defs>
</svg>
